<?xml version="1.0" standalone="no"?>
<!DOCTYPE svg PUBLIC "-//W3C//DTD SVG 20010904//EN"
 "http://www.w3.org/TR/2001/REC-SVG-20010904/DTD/svg10.dtd">
<svg version="1.0" xmlns="http://www.w3.org/2000/svg"
 width="1223.000000pt" height="1280.000000pt" viewBox="0 0 1223.000000 1280.000000"
 preserveAspectRatio="xMidYMid meet">
<metadata>
Created by potrace 1.15, written by Peter Selinger 2001-2017
</metadata>
<g transform="translate(0.000000,1280.000000) scale(0.100000,-0.100000)"
fill="#000000" stroke="none">
<path d="M1333 12555 c-93 -29 -202 -112 -255 -194 -54 -86 -33 -174 124 -506
187 -395 244 -540 268 -684 14 -87 8 -135 -25 -202 l-25 -49 -93 73 c-50 40
-146 114 -212 164 -125 94 -201 168 -229 221 -26 50 -30 112 -12 156 22 53 21
56 -23 56 -59 0 -92 -16 -136 -66 l-40 -45 -130 -22 c-149 -25 -207 -52 -256
-120 -89 -122 -73 -295 41 -442 21 -27 114 -120 205 -205 103 -96 193 -189
235 -245 297 -395 516 -888 614 -1380 14 -71 68 -461 121 -865 53 -404 105
-778 117 -830 30 -141 101 -349 164 -480 93 -193 164 -289 385 -517 185 -192
199 -209 199 -243 0 -187 149 -610 290 -822 148 -223 370 -463 721 -783 l66
-60 12 -265 c20 -472 73 -824 210 -1395 129 -540 191 -918 191 -1165 0 -229
-85 -740 -143 -859 -9 -18 -33 -31 -93 -52 -242 -81 -353 -174 -342 -290 15
-148 135 -217 363 -206 82 3 128 11 181 30 107 38 124 49 225 150 l94 94 70 7
c148 15 295 55 395 108 243 128 495 333 519 423 25 90 30 312 35 1629 3 758 7
1380 9 1383 2 2 42 -20 88 -48 291 -182 980 -430 1414 -511 93 -17 165 -21
477 -25 l367 -5 123 -127 c228 -233 679 -765 724 -853 54 -106 73 -232 90
-608 l7 -145 -134 -101 c-155 -118 -287 -238 -358 -327 -35 -44 -228 -378
-245 -424 -1 0 -117 -13 -259 -27 -193 -20 -277 -33 -335 -51 -138 -45 -208
-114 -219 -218 -17 -165 90 -264 306 -283 59 -5 98 2 376 71 171 42 361 85
424 96 100 17 308 77 336 97 6 4 37 48 70 97 71 107 171 209 242 248 36 19 77
30 135 37 220 27 490 91 583 138 203 102 374 271 473 467 116 232 166 546 143
894 -7 97 -13 183 -14 193 -1 9 48 76 109 150 390 468 623 888 734 1323 32
125 26 136 60 -110 91 -657 255 -1066 472 -1174 53 -27 72 -31 142 -31 101 0
173 18 273 69 147 74 213 155 213 263 0 48 -8 72 -54 165 -30 59 -85 155 -121
213 -91 142 -88 136 -146 327 -61 204 -109 400 -145 593 -27 144 -27 148 -34
755 -7 658 -4 623 -64 780 -96 250 -365 613 -715 964 -231 232 -449 408 -657
530 -145 85 -473 226 -734 316 -370 127 -1040 293 -1492 370 -496 84 -613 84
-1823 9 -867 -53 -903 -55 -990 -40 -115 19 -226 74 -317 156 -105 95 -132
138 -408 654 -98 184 -119 231 -107 237 50 28 247 213 283 266 83 121 80 206
-11 310 -25 28 -45 54 -45 58 0 3 15 24 33 47 28 36 32 47 31 99 -3 145 -107
247 -314 309 -100 30 -162 62 -240 125 -125 100 -196 202 -405 578 -149 268
-194 328 -298 397 -94 61 -185 91 -497 165 -185 43 -300 75 -327 91 -105 61
-273 246 -498 549 -134 181 -304 360 -376 393 -52 25 -121 28 -186 7z"/>
</g>
</svg>
